<svg width="40" height="38" viewBox="0 0 40 38" fill="none" xmlns="http://www.w3.org/2000/svg">
<path d="M33.0625 11.4375H6.9375C6.28166 11.4375 5.75 11.9692 5.75 12.625C5.75 13.2808 6.28166 13.8125 6.9375 13.8125H33.0625C33.7183 13.8125 34.25 13.2808 34.25 12.625C34.25 11.9692 33.7183 11.4375 33.0625 11.4375Z" fill="#5D5D5D"/>
<path d="M28.3125 17.8125H6.9375C6.28166 17.8125 5.75 18.3442 5.75 19C5.75 19.6558 6.28166 20.1875 6.9375 20.1875H28.3125C28.9683 20.1875 29.5 19.6558 29.5 19C29.5 18.3442 28.9683 17.8125 28.3125 17.8125Z" fill="#5D5D5D"/>
<path d="M33.0625 24.1875H6.9375C6.28166 24.1875 5.75 24.7192 5.75 25.375C5.75 26.0308 6.28166 26.5625 6.9375 26.5625H33.0625C33.7183 26.5625 34.25 26.0308 34.25 25.375C34.25 24.7192 33.7183 24.1875 33.0625 24.1875Z" fill="#5D5D5D"/>
</svg>
