<svg width="177" height="126" viewBox="0 0 177 126" fill="none" xmlns="http://www.w3.org/2000/svg">
<g filter="url(#filter0_b_6_50)">
<mask id="path-1-inside-1_6_50" fill="white">
<path fill-rule="evenodd" clip-rule="evenodd" d="M110.781 116.377C117.69 121.869 126.436 125.151 135.948 125.151C158.302 125.151 176.423 107.029 176.423 84.6759C176.423 62.3222 158.302 44.201 135.948 44.201C131.557 44.201 127.33 44.9002 123.371 46.1933C117.51 31.0614 102.815 20.3313 85.614 20.3313C82.6841 20.3313 79.8269 20.6426 77.0736 21.234C70.2128 8.63996 56.8578 0.0938873 41.5068 0.0938873C19.1532 0.0938873 1.03198 18.2151 1.03198 40.5687C1.03198 48.5339 3.33282 55.9617 7.30613 62.2238C3.01493 68.6485 0.5131 76.37 0.5131 84.6759C0.5131 107.029 18.6343 125.151 40.9879 125.151C49.2339 125.151 56.904 122.685 63.3009 118.45C69.6979 122.685 77.368 125.151 85.614 125.151C95.1261 125.151 103.872 121.869 110.781 116.377Z"/>
</mask>
<path fill-rule="evenodd" clip-rule="evenodd" d="M110.781 116.377C117.69 121.869 126.436 125.151 135.948 125.151C158.302 125.151 176.423 107.029 176.423 84.6759C176.423 62.3222 158.302 44.201 135.948 44.201C131.557 44.201 127.33 44.9002 123.371 46.1933C117.51 31.0614 102.815 20.3313 85.614 20.3313C82.6841 20.3313 79.8269 20.6426 77.0736 21.234C70.2128 8.63996 56.8578 0.0938873 41.5068 0.0938873C19.1532 0.0938873 1.03198 18.2151 1.03198 40.5687C1.03198 48.5339 3.33282 55.9617 7.30613 62.2238C3.01493 68.6485 0.5131 76.37 0.5131 84.6759C0.5131 107.029 18.6343 125.151 40.9879 125.151C49.2339 125.151 56.904 122.685 63.3009 118.45C69.6979 122.685 77.368 125.151 85.614 125.151C95.1261 125.151 103.872 121.869 110.781 116.377Z" fill="#06A5FF" fill-opacity="0.1"/>
<path d="M110.781 116.377L111.217 115.828L110.781 115.481L110.345 115.828L110.781 116.377ZM123.371 46.1933L122.717 46.4466L122.957 47.0662L123.588 46.8599L123.371 46.1933ZM77.0736 21.234L76.4579 21.5694L76.7085 22.0296L77.2209 21.9196L77.0736 21.234ZM7.30613 62.2238L7.88925 62.6133L8.14283 62.2336L7.89822 61.8481L7.30613 62.2238ZM63.3009 118.45L63.688 117.865L63.3009 117.609L62.9139 117.865L63.3009 118.45ZM110.345 116.926C117.373 122.513 126.272 125.852 135.948 125.852V124.449C126.6 124.449 118.007 121.225 111.217 115.828L110.345 116.926ZM135.948 125.852C158.689 125.852 177.124 107.417 177.124 84.6759H175.722C175.722 106.642 157.914 124.449 135.948 124.449V125.852ZM177.124 84.6759C177.124 61.935 158.689 43.4998 135.948 43.4998V44.9023C157.914 44.9023 175.722 62.7095 175.722 84.6759H177.124ZM135.948 43.4998C131.482 43.4998 127.181 44.211 123.153 45.5268L123.588 46.8599C127.478 45.5895 131.632 44.9023 135.948 44.9023V43.4998ZM124.024 45.9401C118.063 30.5472 103.114 19.6301 85.614 19.6301V21.0325C102.516 21.0325 116.957 31.5757 122.717 46.4466L124.024 45.9401ZM85.614 19.6301C82.6343 19.6301 79.7277 19.9467 76.9264 20.5484L77.2209 21.9196C79.926 21.3385 82.7339 21.0325 85.614 21.0325V19.6301ZM77.6894 20.8985C70.7107 8.08811 57.1247 -0.607339 41.5068 -0.607339V0.795114C56.5909 0.795114 69.7149 9.19181 76.4579 21.5694L77.6894 20.8985ZM41.5068 -0.607339C18.7659 -0.607339 0.330753 17.8278 0.330753 40.5687H1.73321C1.73321 18.6024 19.5404 0.795114 41.5068 0.795114V-0.607339ZM0.330753 40.5687C0.330753 48.6708 2.67155 56.2284 6.71403 62.5995L7.89822 61.8481C3.99408 55.6951 1.73321 48.397 1.73321 40.5687H0.330753ZM6.72301 61.8343C2.35721 68.3707 -0.188127 76.2271 -0.188127 84.6759H1.21433C1.21433 76.5129 3.67266 68.9263 7.88925 62.6133L6.72301 61.8343ZM-0.188127 84.6759C-0.188127 107.417 18.247 125.852 40.9879 125.852V124.449C19.0216 124.449 1.21433 106.642 1.21433 84.6759H-0.188127ZM40.9879 125.852C49.3758 125.852 57.1798 123.343 63.688 119.035L62.9139 117.865C56.6282 122.026 49.0921 124.449 40.9879 124.449V125.852ZM85.614 124.449C77.5098 124.449 69.9737 122.026 63.688 117.865L62.9139 119.035C69.4221 123.343 77.2261 125.852 85.614 125.852V124.449ZM110.345 115.828C103.555 121.225 94.962 124.449 85.614 124.449V125.852C95.2902 125.852 104.189 122.513 111.217 116.926L110.345 115.828Z" fill="url(#paint0_radial_6_50)" mask="url(#path-1-inside-1_6_50)"/>
</g>
<defs>
<filter id="filter0_b_6_50" x="-72.4869" y="-72.9061" width="321.91" height="271.057" filterUnits="userSpaceOnUse" color-interpolation-filters="sRGB">
<feFlood flood-opacity="0" result="BackgroundImageFix"/>
<feGaussianBlur in="BackgroundImageFix" stdDeviation="36.5"/>
<feComposite in2="SourceAlpha" operator="in" result="effect1_backgroundBlur_6_50"/>
<feBlend mode="normal" in="SourceGraphic" in2="effect1_backgroundBlur_6_50" result="shape"/>
</filter>
<radialGradient id="paint0_radial_6_50" cx="0" cy="0" r="1" gradientUnits="userSpaceOnUse" gradientTransform="translate(88.7274 83.3786) rotate(90.3559) scale(41.7729 58.7594)">
<stop stop-opacity="0"/>
<stop offset="1" stop-color="#598DE0" stop-opacity="0.31"/>
</radialGradient>
</defs>
</svg>
