<svg width="31" height="31" viewBox="0 0 31 31" fill="none" xmlns="http://www.w3.org/2000/svg">
<g clip-path="url(#clip0_53_130)">
<path d="M30.0189 28.0581L27.9 21.7H25.575L26.8661 27.9H4.13385L5.425 21.7H3.1L0.979599 28.0581C0.441749 29.6763 1.395 31 3.1 31H27.9C29.605 31 30.5583 29.6763 30.0189 28.0581ZM23.25 7.75C23.25 5.69457 22.4335 3.72333 20.9801 2.26992C19.5267 0.816515 17.5554 0 15.5 0C13.4446 0 11.4733 0.816515 10.0199 2.26992C8.56651 3.72333 7.75 5.69457 7.75 7.75C7.75 15.1512 15.5 23.25 15.5 23.25C15.5 23.25 23.25 15.1512 23.25 7.75ZM11.315 7.843C11.315 7.29349 11.4233 6.74937 11.6336 6.2417C11.8439 5.73404 12.1522 5.2728 12.5409 4.88431C12.9295 4.49582 13.3908 4.1877 13.8986 3.97755C14.4063 3.7674 14.9505 3.65935 15.5 3.65955C16.6097 3.65955 17.674 4.10039 18.4587 4.88508C19.2434 5.66978 19.6842 6.73405 19.6842 7.84377C19.6842 8.9535 19.2434 10.0178 18.4587 10.8025C17.674 11.5872 16.6097 12.028 15.5 12.028C14.3901 12.028 13.3256 11.5871 12.5408 10.8022C11.7559 10.0174 11.315 8.95293 11.315 7.843Z" fill="#5D5D5D"/>
</g>
<defs>
<clipPath id="clip0_53_130">
<rect width="31" height="31" fill="white"/>
</clipPath>
</defs>
</svg>
