<svg width="41" height="28" viewBox="0 0 41 28" fill="none" xmlns="http://www.w3.org/2000/svg">
<path d="M20.5 22.3333C22.7916 22.3333 24.7399 21.5315 26.3446 19.928C27.9494 18.3244 28.7512 16.3762 28.75 14.0833C28.75 11.7916 27.9482 9.84404 26.3446 8.24048C24.7411 6.63692 22.7929 5.83454 20.5 5.83331C18.2083 5.83331 16.2607 6.6357 14.6571 8.24048C13.0536 9.84526 12.2512 11.7929 12.25 14.0833C12.25 16.375 13.0524 18.3232 14.6571 19.928C16.2619 21.5328 18.2095 22.3345 20.5 22.3333ZM20.5 19.0333C19.125 19.0333 17.9565 18.5518 16.9946 17.5886C16.0328 16.6255 15.5512 15.4571 15.55 14.0833C15.55 12.7083 16.0315 11.5399 16.9946 10.578C17.9578 9.61609 19.1262 9.13454 20.5 9.13331C21.875 9.13331 23.044 9.61487 24.0071 10.578C24.9703 11.5411 25.4512 12.7095 25.45 14.0833C25.45 15.4583 24.969 16.6274 24.0071 17.5905C23.0453 18.5536 21.8762 19.0345 20.5 19.0333ZM20.5 27.8333C16.0389 27.8333 11.975 26.5885 8.30831 24.0988C4.64165 21.6091 1.98331 18.2706 0.333313 14.0833C1.98331 9.8972 4.64165 6.55931 8.30831 4.06965C11.975 1.57998 16.0389 0.334535 20.5 0.333313C24.9611 0.333313 29.025 1.57876 32.6916 4.06965C36.3583 6.56054 39.0166 9.89842 40.6666 14.0833C39.0166 18.2694 36.3583 21.6079 32.6916 24.0988C29.025 26.5897 24.9611 27.8345 20.5 27.8333Z" fill="white" fill-opacity="0.75"/>
</svg>
