<svg width="40" height="35" viewBox="0 0 40 38" fill="none" xmlns="http://www.w3.org/2000/svg">
<path d="M20 14.5069C21.0878 14.5069 22.1512 14.8295 23.0556 15.4338C23.9601 16.0382 24.6651 16.8971 25.0813 17.9021C25.4976 18.9071 25.6065 20.013 25.3943 21.0799C25.1821 22.1468 24.6583 23.1268 23.8891 23.896C23.1199 24.6652 22.1399 25.189 21.073 25.4012C20.0061 25.6134 18.9002 25.5045 17.8952 25.0882C16.8902 24.672 16.0313 23.967 15.4269 23.0625C14.8226 22.1581 14.5 21.0947 14.5 20.0069C14.5018 18.5488 15.0819 17.1509 16.1129 16.1198C17.144 15.0888 18.5419 14.5087 20 14.5069ZM20 11.7569C18.3683 11.7569 16.7733 12.2408 15.4165 13.1473C14.0598 14.0538 13.0024 15.3423 12.378 16.8498C11.7536 18.3572 11.5902 20.0161 11.9085 21.6164C12.2269 23.2167 13.0126 24.6867 14.1664 25.8405C15.3202 26.9943 16.7902 27.78 18.3905 28.0984C19.9908 28.4167 21.6496 28.2533 23.1571 27.6289C24.6646 27.0045 25.9531 25.9471 26.8596 24.5903C27.7661 23.2336 28.25 21.6386 28.25 20.0069C28.25 17.8189 27.3808 15.7204 25.8336 14.1733C24.2865 12.6261 22.188 11.7569 20 11.7569ZM5.41675 7.3679L7.36375 5.42365L12.1831 10.2444L10.2375 12.1886L5.41675 7.3679ZM0.75 18.6319H7.625V21.3819H0.75V18.6319ZM5.41675 32.6473L10.2375 27.8265L12.1818 29.7708L7.36238 34.5915L5.41675 32.6473ZM18.625 32.3819H21.375V39.2569H18.625V32.3819ZM27.8196 29.7694L29.7639 27.8251L34.5846 32.6459L32.6404 34.5901L27.8196 29.7694ZM32.375 18.6319H39.25V21.3819H32.375V18.6319ZM27.8196 10.243L32.6404 5.42227L34.5846 7.36652L29.7639 12.1873L27.8196 10.243ZM18.625 0.756897H21.375V7.6319H18.625V0.756897Z" fill="white"/>
</svg>
