<svg width="40" height="39" viewBox="0 0 32 39" fill="none" xmlns="http://www.w3.org/2000/svg">
<path d="M16 36.4167C23.5185 36.4167 29.75 30.8012 29.75 23.7135C29.75 19.286 27.4895 14.8053 24.9338 11.1332C22.3617 7.43534 19.3935 4.42318 17.793 2.89968C17.3107 2.43714 16.6683 2.17889 16 2.17889C15.3317 2.17889 14.6893 2.43714 14.207 2.89968C12.6065 4.42134 9.63833 7.43534 7.06617 11.1332C4.5105 14.8053 2.25 19.286 2.25 23.7135C2.25 30.8012 8.4815 36.4167 16 36.4167Z" stroke="white" stroke-width="3.83333"/>
<path d="M16 30C14.0551 30 12.1898 29.2274 10.8146 27.8521C9.4393 26.4769 8.66669 24.6116 8.66669 22.6667" stroke="white" stroke-width="3.83333" stroke-linecap="round"/>
</svg>
