<svg width="40" height="32" viewBox="0 0 40 32" fill="none" xmlns="http://www.w3.org/2000/svg">
<path d="M29.625 25.625C29.625 27.0837 29.0455 28.4826 28.0141 29.5141C26.9826 30.5455 25.5837 31.125 24.125 31.125C21.7703 31.125 19.493 29.5902 18.7109 27.4778C18.5919 27.1377 18.6112 26.7645 18.7645 26.4385C18.9179 26.1125 19.1931 25.8596 19.5309 25.7344C19.8687 25.6092 20.2422 25.6216 20.571 25.7689C20.8998 25.9162 21.1577 26.1867 21.2891 26.5222C21.6741 27.562 22.9219 28.375 24.125 28.375C24.8543 28.375 25.5538 28.0853 26.0695 27.5695C26.5853 27.0538 26.875 26.3543 26.875 25.625C26.875 24.8957 26.5853 24.1962 26.0695 23.6805C25.5538 23.1647 24.8543 22.875 24.125 22.875H4.875C4.51033 22.875 4.16059 22.7301 3.90273 22.4723C3.64487 22.2144 3.5 21.8647 3.5 21.5C3.5 21.1353 3.64487 20.7856 3.90273 20.5277C4.16059 20.2699 4.51033 20.125 4.875 20.125H24.125C25.5837 20.125 26.9826 20.7045 28.0141 21.7359C29.0455 22.7674 29.625 24.1663 29.625 25.625ZM18.625 11.875C20.0837 11.875 21.4826 11.2955 22.5141 10.2641C23.5455 9.23264 24.125 7.83369 24.125 6.375C24.125 4.91631 23.5455 3.51736 22.5141 2.48591C21.4826 1.45446 20.0837 0.875 18.625 0.875C16.2703 0.875 13.993 2.40984 13.2109 4.52219C13.0919 4.86227 13.1112 5.23547 13.2645 5.56151C13.4179 5.88754 13.6931 6.14037 14.0309 6.26559C14.3687 6.39082 14.7422 6.37844 15.071 6.23111C15.3998 6.08379 15.6577 5.81329 15.7891 5.47781C16.1741 4.43797 17.4219 3.625 18.625 3.625C19.3543 3.625 20.0538 3.91473 20.5695 4.43046C21.0853 4.94618 21.375 5.64565 21.375 6.375C21.375 7.10435 21.0853 7.80382 20.5695 8.31954C20.0538 8.83527 19.3543 9.125 18.625 9.125H2.125C1.76033 9.125 1.41059 9.26987 1.15273 9.52773C0.894866 9.78559 0.75 10.1353 0.75 10.5C0.75 10.8647 0.894866 11.2144 1.15273 11.4723C1.41059 11.7301 1.76033 11.875 2.125 11.875H18.625ZM33.75 6.375C31.3953 6.375 29.118 7.90984 28.3359 10.0222C28.2169 10.3623 28.2362 10.7355 28.3895 11.0615C28.5429 11.3875 28.8181 11.6404 29.1559 11.7656C29.4937 11.8908 29.8672 11.8784 30.196 11.7311C30.5248 11.5838 30.7827 11.3133 30.9141 10.9778C31.2991 9.93797 32.5469 9.125 33.75 9.125C34.4793 9.125 35.1788 9.41473 35.6945 9.93046C36.2103 10.4462 36.5 11.1457 36.5 11.875C36.5 12.6043 36.2103 13.3038 35.6945 13.8195C35.1788 14.3353 34.4793 14.625 33.75 14.625H3.5C3.13533 14.625 2.78559 14.7699 2.52773 15.0277C2.26987 15.2856 2.125 15.6353 2.125 16C2.125 16.3647 2.26987 16.7144 2.52773 16.9723C2.78559 17.2301 3.13533 17.375 3.5 17.375H33.75C35.2087 17.375 36.6076 16.7955 37.6391 15.7641C38.6705 14.7326 39.25 13.3337 39.25 11.875C39.25 10.4163 38.6705 9.01736 37.6391 7.98591C36.6076 6.95446 35.2087 6.375 33.75 6.375Z" fill="white"/>
</svg>
